<?xml version="1.0" encoding="UTF-8"?>
<!-- adapted from Tabler Icons "settings-filled" (MIT); 24x24 path pre-scaled into the 16x16 viewBox -->
<svg xmlns="http://www.w3.org/2000/svg" height="16px" viewBox="0 0 16 16" width="16px"><path fill="#2e3436" d="M 9.7647 2.7207 a 0.4827 0.4827 0 0 0 0.72 0.2987 c 1.626 -0.99 3.4867 0.87 2.4967 2.496 a 0.4827 0.4827 0 0 0 0.298 0.72 c 1.85 0.4487 1.85 3.08 0 3.5293 a 0.4827 0.4827 0 0 0 -0.2987 0.72 c 0.99 1.626 -0.87 3.4867 -2.496 2.4967 a 0.4827 0.4827 0 0 0 -0.72 0.298 c -0.4487 1.85 -3.08 1.85 -3.5293 0 a 0.4827 0.4827 0 0 0 -0.72 -0.2987 c -1.626 0.99 -3.4867 -0.87 -2.4967 -2.496 a 0.4827 0.4827 0 0 0 -0.298 -0.72 c -1.85 -0.4487 -1.85 -3.08 0 -3.5293 a 0.4827 0.4827 0 0 0 0.2987 -0.72 c -0.99 -1.626 0.87 -3.4867 2.496 -2.4967 a 0.4813 0.4813 0 0 0 0.72 -0.298 c 0.4487 -1.85 3.08 -1.85 3.5293 0 z m -1.7647 3.2793 a 2 2 0 1 0 0 4 a 2 2 0 0 0 0 -4"/></svg>
